<svg width="445" height="718" viewBox="0 0 445 718" fill="none" xmlns="http://www.w3.org/2000/svg">
<path d="M221.947 359.136C221.947 293.232 271.576 239.533 333.046 239.533C394.264 239.533 444.145 292.961 444.145 359.136C444.145 425.039 394.516 478.738 333.046 478.738C271.828 478.738 221.947 425.039 221.947 359.136Z" fill="#1ABCFE"/>
<path d="M0 598.07C0 532.166 49.6294 478.467 111.099 478.467H222.199V598.07C222.199 663.973 172.569 717.673 111.099 717.673C49.6294 717.673 0 664.245 0 598.07Z" fill="#0ACF83"/>
<path d="M221.947 0.598509V239.533H333.046C394.264 239.533 444.145 186.105 444.145 119.93C444.145 54.0265 394.516 0.327301 333.046 0.327301H221.947V0.598509Z" fill="#FF7262"/>
<path d="M0 120.201C0 186.105 49.6294 239.804 111.099 239.804H222.199V0.598511H111.099C49.6294 0.598511 0 54.0265 0 120.201Z" fill="#F24E1E"/>
<path d="M0 359.136C0 425.039 49.6294 478.738 111.099 478.738H222.199V239.533H111.099C49.6294 239.533 0 293.232 0 359.136Z" fill="#A259FF"/>
</svg>
