<svg width="400" height="451" viewBox="0 0 400 451" fill="none" xmlns="http://www.w3.org/2000/svg">
<path d="M200.023 0.00402832C193.949 0.00402832 188.041 1.25889 182.812 4.21784L17.3448 99.7734C6.6369 105.945 0.128174 117.596 0.128174 129.993V320.757C0.128174 333.145 6.6369 344.78 17.3448 350.967L60.5572 375.913C81.5531 386.26 89.2923 386.098 98.8479 386.098C129.932 386.098 147.68 367.236 147.68 334.458V146.15C147.68 143.489 145.376 141.585 142.763 141.585H122.036C119.38 141.585 117.119 143.489 117.119 146.15V334.458C117.119 348.985 101.983 363.599 77.4223 351.318L32.452 324.971C30.8602 324.107 29.6396 322.579 29.6396 320.757V129.988C29.6396 128.181 30.8456 126.341 32.452 125.423L197.567 30.2234C198.313 29.7875 199.162 29.5578 200.026 29.5578C200.89 29.5578 201.738 29.7875 202.484 30.2234L367.605 125.427C369.177 126.375 370.417 128.128 370.417 129.998V320.762C370.417 322.583 369.499 324.449 367.956 325.328L202.484 420.532C201.068 421.376 199.115 421.376 197.567 420.532L155.058 395.239C154.411 394.888 153.687 394.704 152.951 394.704C152.215 394.704 151.491 394.888 150.844 395.239C139.111 401.889 136.904 402.661 125.898 406.479C123.188 407.426 119.072 408.896 127.305 413.51L182.812 446.176C188.045 449.195 193.986 450.772 200.028 450.746C206.07 450.784 212.012 449.208 217.24 446.181L382.712 350.972C393.42 344.746 399.924 333.15 399.924 320.762V129.993C399.924 117.6 393.42 105.97 382.712 99.7832L217.24 4.22762C212.055 1.26379 206.107 0.0089084 200.028 0.0089084L200.023 0.00402832Z" fill="#83CD29"/>
<path d="M244.291 136.316C197.172 136.316 169.111 156.37 169.111 189.719C169.111 225.89 196.962 235.832 242.186 240.304C296.287 245.602 300.501 253.546 300.501 264.196C300.501 282.667 285.775 290.543 250.97 290.543C207.235 290.543 197.626 279.625 194.408 257.872C194.027 255.538 192.226 253.654 189.838 253.654H168.408C165.771 253.654 163.491 255.929 163.491 258.575C163.491 286.422 178.637 319.351 250.97 319.351C303.328 319.351 333.528 298.8 333.528 262.789C333.528 227.096 309.134 217.511 258.343 210.798C207.025 204.006 202.133 200.681 202.133 188.664C202.133 178.742 206.283 165.471 244.291 165.471C278.245 165.471 290.794 172.795 295.936 195.69C296.385 197.839 298.279 199.553 300.501 199.553H321.936C323.255 199.553 324.534 198.742 325.447 197.795C326.345 196.784 326.98 195.646 326.853 194.284C323.533 154.861 297.244 136.316 244.291 136.316Z" fill="#83CD29"/>
</svg>
